<?xml version="1.0" standalone="no"?>
<!DOCTYPE svg PUBLIC "-//W3C//DTD SVG 20010904//EN"
 "http://www.w3.org/TR/2001/REC-SVG-20010904/DTD/svg10.dtd">
<svg version="1.0" xmlns="http://www.w3.org/2000/svg"
 width="412.000000pt" height="316.000000pt" viewBox="0 0 412.000000 316.000000"
 preserveAspectRatio="xMidYMid meet">

<g transform="translate(0.000000,316.000000) scale(0.100000,-0.100000)"
fill="#000000" stroke="none">
<path d="M14 3151 c18 -7 18 -8 3 -14 -22 -8 -22 -39 -1 -35 10 2 19 -3 21 -9
3 -8 -4 -13 -17 -13 l-21 0 2 -420 c0 -231 5 -420 9 -420 5 0 15 7 24 15 17
17 26 19 26 6 0 -5 -9 -13 -20 -16 -13 -4 -20 -15 -20 -30 0 -13 -5 -27 -10
-30 -14 -9 -13 -136 1 -132 6 1 14 -4 17 -12 3 -10 0 -12 -12 -8 -15 6 -16
-17 -16 -259 l0 -266 24 6 c14 3 28 1 32 -6 4 -7 3 -8 -4 -4 -7 4 -12 2 -12
-3 0 -6 -9 -11 -20 -11 -20 0 -20 -8 -20 -745 l1 -745 174 0 174 0 6 37 c4 21
10 52 15 68 5 17 11 62 15 100 4 39 14 102 22 140 13 59 15 114 9 350 -7 301
-11 384 -21 511 -4 52 -1 122 8 195 9 63 18 168 22 234 3 66 10 138 16 160 5
22 13 99 19 170 5 72 16 207 24 300 16 183 27 408 26 492 -1 29 -14 105 -31
170 -16 65 -29 131 -29 148 0 17 -6 43 -13 58 l-12 27 -137 0 c-101 0 -138 -3
-138 -12 0 -9 -3 -9 -12 0 -7 7 -39 12 -77 11 -41 0 -59 -3 -47 -8z m33 -33
c-3 -8 -6 -5 -6 6 -1 11 2 17 5 13 3 -3 4 -12 1 -19z m33 -38 c0 -5 -8 -10
-17 -10 -15 0 -16 2 -3 10 19 12 20 12 20 0z m46 -14 c-12 -18 -12 -26 -3 -29
7 -3 5 -6 -5 -6 -10 -1 -18 4 -18 9 0 15 23 50 34 50 4 0 1 -11 -8 -24z m120
-11 c-23 -17 -36 -19 -36 -6 0 5 8 12 18 14 32 9 37 6 18 -8z m-197 -38 c6 -8
8 -17 4 -20 -3 -4 -1 -12 5 -20 7 -8 7 -18 2 -27 -8 -13 -10 -13 -10 -1 0 11
-4 9 -14 -5 -22 -29 -30 -10 -12 27 12 24 13 35 5 45 -7 9 -8 14 -1 14 5 0 15
-6 21 -13z m138 -57 c1 -11 0 -20 -1 -20 -2 0 -11 9 -21 20 -18 19 -17 20 1
20 13 0 20 -7 21 -20z m-70 -40 c-3 -11 -2 -22 2 -25 7 -4 14 -84 12 -125 0
-8 -1 -80 -1 -160 0 -80 -4 -152 -9 -159 -8 -12 -11 -10 -15 10 -8 40 -17 443
-10 462 9 24 27 21 21 -3z m103 -90 c0 -5 -4 -10 -10 -10 -5 0 -10 5 -10 10 0
6 5 10 10 10 6 0 10 -4 10 -10z m27 -122 c-3 -8 -6 -5 -6 6 -1 11 2 17 5 13 3
-3 4 -12 1 -19z m173 -91 c0 -5 -4 -5 -10 -2 -5 3 -10 14 -10 23 0 15 2 15 10
2 5 -8 10 -19 10 -23z m-251 -321 c1 -188 -11 -273 -34 -238 -12 19 -3 402 11
436 7 19 8 19 15 0 4 -10 8 -99 8 -198z m-105 33 c-8 -14 -24 -10 -24 6 0 9 6
12 15 9 8 -4 12 -10 9 -15z m56 -19 c0 -5 -4 -10 -10 -10 -5 0 -10 5 -10 10 0
6 5 10 10 10 6 0 10 -4 10 -10z m97 -12 c-3 -8 -6 -5 -6 6 -1 11 2 17 5 13 3
-3 4 -12 1 -19z m-165 -130 c-6 -6 -15 -8 -19 -4 -4 4 -1 11 7 16 19 12 27 3
12 -12z m268 -624 c0 -8 -5 -12 -10 -9 -6 4 -8 11 -5 16 9 14 15 11 15 -7z
m-172 -19 c-3 -3 -9 2 -12 12 -6 14 -5 15 5 6 7 -7 10 -15 7 -18z m-28 -321
c0 -30 -4 -54 -9 -54 -10 0 -23 98 -15 112 13 20 24 -7 24 -58z m4 -176 c3
-13 6 -107 6 -210 0 -124 4 -189 11 -194 8 -4 8 -9 0 -17 -6 -6 -11 -23 -11
-38 0 -40 -17 -44 -24 -6 -9 48 -19 464 -11 476 10 18 22 13 29 -11z m-77
-400 c-3 -8 -6 -5 -6 6 -1 11 2 17 5 13 3 -3 4 -12 1 -19z"/>
<path d="M1310 3145 c0 -9 12 -20 26 -25 21 -8 25 -15 22 -42 -2 -25 -12 -39
-45 -61 -31 -20 -43 -35 -43 -53 0 -23 3 -24 60 -24 52 0 60 2 60 19 0 11 -5
21 -12 23 -8 3 -5 15 10 40 28 44 28 92 2 118 -24 24 -80 27 -80 5z"/>
<path d="M1474 2995 c0 -93 2 -133 3 -88 2 45 2 122 0 170 -1 48 -3 12 -3 -82z"/>
<path d="M1910 2995 c0 -157 1 -165 19 -165 11 0 23 5 26 10 3 6 19 10 36 10
16 0 30 5 31 10 4 30 0 35 -32 40 l-35 5 -3 128 c-2 119 -4 127 -22 127 -19 0
-20 -8 -20 -165z"/>
<path d="M1996 3152 c-3 -5 6 -58 19 -118 14 -60 25 -121 25 -135 0 -18 6 -28
20 -32 17 -4 23 7 50 96 17 56 35 115 41 131 13 42 12 46 -15 46 -19 0 -26 -7
-31 -32 -4 -17 -13 -45 -20 -61 l-12 -30 -11 34 c-6 19 -13 51 -17 72 -4 27
-11 37 -25 37 -10 0 -21 -4 -24 -8z"/>
<path d="M2330 3016 c0 -83 4 -147 10 -151 13 -8 59 17 94 52 69 68 67 142 -4
207 -27 24 -50 36 -70 36 l-30 0 0 -144z m110 3 c0 -21 -38 -79 -52 -79 -4 0
-8 37 -8 83 l1 82 29 -33 c17 -18 30 -41 30 -53z"/>
<path d="M2670 3016 c0 -122 2 -145 16 -150 24 -9 34 2 34 39 0 43 14 52 28
20 13 -27 39 -33 48 -11 3 8 -2 28 -10 45 -15 28 -15 32 4 63 28 45 25 74 -9
109 -23 23 -39 29 -70 29 l-41 0 0 -144z m80 79 c10 -12 10 -21 1 -41 -15 -33
-31 -22 -31 22 0 37 10 43 30 19z"/>
<path d="M3766 3138 c-3 -13 -7 -41 -10 -63 -19 -150 -47 -337 -56 -375 -11
-49 -3 -510 10 -545 4 -10 3 -35 -1 -55 -10 -41 8 -489 21 -538 14 -51 -5 -90
-54 -112 -64 -29 -69 -35 -57 -56 5 -11 22 -46 36 -79 44 -100 47 -106 117
-233 37 -67 68 -132 68 -143 0 -11 -12 -46 -26 -77 -14 -31 -33 -73 -41 -92
-8 -19 -21 -48 -30 -63 -12 -22 -14 -46 -9 -107 4 -43 11 -92 16 -110 5 -17
12 -135 16 -261 l7 -229 174 0 173 0 0 65 c0 53 -3 63 -15 59 -11 -5 -15 1
-15 17 0 19 2 21 9 10 8 -12 11 -10 16 10 3 13 4 340 3 725 -3 674 -4 703 -22
723 -11 12 -27 21 -38 21 -17 0 -17 1 2 20 23 23 34 26 27 6 -6 -16 20 -43 30
-32 4 4 1 11 -7 16 -10 7 -11 10 -2 10 8 0 12 16 12 45 0 27 -5 45 -11 45 -8
0 -8 4 -1 13 5 7 10 84 11 180 l2 167 -24 0 c-15 0 -24 6 -24 15 0 11 4 12 11
5 20 -20 36 -10 36 21 0 16 -4 28 -8 25 -4 -2 -14 4 -21 15 -11 18 -9 21 8 26
14 4 21 14 21 30 0 18 -4 24 -15 19 -8 -3 -15 -1 -15 4 0 6 7 10 15 10 13 0
15 52 14 398 0 339 -2 394 -14 379 -11 -15 -18 -17 -32 -8 -16 9 -15 12 15 23
29 11 32 16 32 55 l0 43 -175 0 c-173 0 -175 0 -179 -22z m294 -38 c0 -5 -7
-10 -15 -10 -8 0 -15 5 -15 10 0 6 7 10 15 10 8 0 15 -4 15 -10z m-10 -121 c0
-5 -7 -9 -15 -9 -9 0 -12 6 -9 15 6 15 24 11 24 -6z m57 -71 c-3 -8 -6 -5 -6
6 -1 11 2 17 5 13 3 -3 4 -12 1 -19z m-81 -265 c4 -115 8 -143 20 -143 8 0 14
-4 14 -10 0 -5 -7 -10 -15 -10 -11 0 -15 -13 -15 -54 0 -56 -12 -79 -25 -48
-11 25 -19 454 -9 499 8 38 8 38 17 -27 4 -36 10 -129 13 -207z m-71 137 c3
-5 -3 -10 -15 -10 -12 0 -18 5 -15 10 3 6 10 10 15 10 5 0 12 -4 15 -10z m-65
-52 c0 -16 -3 -19 -11 -11 -6 6 -8 16 -5 22 11 17 16 13 16 -11z m216 -85
c-10 -10 -19 5 -10 18 6 11 8 11 12 0 2 -7 1 -15 -2 -18z m-29 -70 c-3 -10 -5
-4 -5 12 0 17 2 24 5 18 2 -7 2 -21 0 -30z m33 27 c0 -5 -4 -10 -10 -10 -5 0
-10 5 -10 10 0 6 5 10 10 10 6 0 10 -4 10 -10z m-20 -74 c0 -3 -4 -8 -10 -11
-5 -3 -10 -1 -10 4 0 6 5 11 10 11 6 0 10 -2 10 -4z m20 -58 c0 -25 -3 -29
-10 -18 -13 20 -13 50 0 50 6 0 10 -15 10 -32z m-80 -247 c0 -63 -2 -69 -22
-73 -22 -4 -23 -2 -20 61 6 113 42 123 42 12z m-45 -111 c3 -6 -1 -7 -9 -4
-18 7 -21 14 -7 14 6 0 13 -4 16 -10z m70 -20 c3 -5 1 -10 -5 -10 -6 0 -9 -3
-6 -8 6 -11 -22 -47 -31 -38 -4 4 -1 12 7 17 12 8 12 12 2 16 -10 4 -10 8 -1
19 14 16 25 18 34 4z m-111 -319 c4 -5 -3 -7 -14 -4 -12 3 -20 0 -20 -6 0 -7
-5 -9 -11 -5 -8 4 -7 9 2 15 18 11 36 11 43 0z m66 -36 c-7 -9 -15 -13 -19
-10 -3 3 1 10 9 15 21 14 24 12 10 -5z m-45 -103 c-3 -3 -11 0 -18 7 -9 10 -8
11 6 5 10 -3 15 -9 12 -12z m-88 -64 c-3 -7 -5 -2 -5 12 0 14 2 19 5 13 2 -7
2 -19 0 -25z m138 13 c3 -5 1 -12 -5 -16 -5 -3 -10 1 -10 9 0 18 6 21 15 7z
m-45 -16 c0 -8 -4 -15 -10 -15 -5 0 -10 7 -10 15 0 8 5 15 10 15 6 0 10 -7 10
-15z m110 -37 c0 -16 -3 -19 -11 -11 -6 6 -8 16 -5 22 11 17 16 13 16 -11z
m-90 -317 c-3 -228 -4 -219 18 -217 16 1 17 -16 20 -199 2 -110 0 -216 -4
-235 -6 -31 -8 -25 -20 50 -7 47 -14 146 -15 220 -2 93 -4 119 -9 85 l-6 -50
-13 30 c-10 23 -12 84 -8 255 4 222 9 266 29 254 6 -4 9 -77 8 -193z"/>
<path d="M1635 3118 c-47 -27 -47 -67 0 -105 41 -33 44 -50 10 -59 -18 -4 -25
-13 -25 -30 0 -13 5 -24 11 -24 19 0 79 32 79 42 0 5 5 6 11 2 6 -3 9 -14 6
-24 -7 -26 30 -34 43 -9 15 27 48 24 62 -6 12 -28 36 -33 44 -10 3 8 -1 36 -9
62 -52 157 -51 156 -79 164 -16 4 -30 4 -33 -1 -2 -4 -8 -40 -11 -80 -6 -64
-9 -71 -20 -54 -7 10 -28 33 -46 51 -28 28 -30 33 -15 39 19 7 24 54 5 54 -7
0 -22 -6 -33 -12z m165 -128 c0 -5 -2 -10 -4 -10 -3 0 -8 5 -11 10 -3 6 -1 10
4 10 6 0 11 -4 11 -10z"/>
<path d="M1154 3102 c-37 -31 -45 -65 -23 -101 16 -26 25 -31 57 -31 49 0 74
25 75 76 2 62 -62 95 -109 56z m60 -47 c8 -21 -3 -45 -20 -45 -8 0 -17 7 -20
15 -8 21 2 45 20 45 7 0 16 -7 20 -15z"/>
<path d="M2159 3010 c-8 -60 -12 -110 -8 -110 4 0 14 -3 22 -6 9 -3 16 3 20
15 7 30 45 27 59 -4 11 -26 24 -30 44 -17 9 5 4 34 -18 102 -37 121 -39 124
-74 128 l-29 3 -16 -111z m58 -22 c-3 -8 -6 -5 -6 6 -1 11 2 17 5 13 3 -3 4
-12 1 -19z"/>
<path d="M2530 3043 c-16 -27 -30 -53 -30 -58 0 -6 17 -28 39 -49 l38 -38 37
45 c20 24 36 47 36 52 0 6 -17 30 -61 83 -17 20 -28 14 -59 -35z m55 -63 c-5
-8 -11 -8 -17 -2 -6 6 -7 16 -3 22 5 8 11 8 17 2 6 -6 7 -16 3 -22z"/>
<path d="M1044 2810 c0 -107 2 -151 3 -97 2 53 2 141 0 195 -1 53 -3 9 -3 -98z"/>
<path d="M1337 2873 c18 -2 50 -2 70 0 21 2 7 4 -32 4 -38 0 -55 -2 -38 -4z"/>
<path d="M1248 2863 c6 -2 18 -2 25 0 6 3 1 5 -13 5 -14 0 -19 -2 -12 -5z"/>
<path d="M1108 2843 c6 -2 18 -2 25 0 6 3 1 5 -13 5 -14 0 -19 -2 -12 -5z"/>
<path d="M1313 2833 c15 -2 37 -2 50 0 12 2 0 4 -28 4 -27 0 -38 -2 -22 -4z"/>
<path d="M1270 2771 c0 -10 7 -24 15 -31 21 -18 19 -33 -9 -59 l-24 -23 -17
26 c-37 55 -135 17 -135 -53 0 -88 124 -94 146 -6 6 24 24 35 24 15 0 -5 8
-10 19 -10 24 0 45 -25 38 -45 -4 -8 -17 -17 -31 -21 -26 -6 -42 -32 -28 -46
4 -4 24 -3 42 4 65 22 89 79 51 117 -14 14 -19 32 -18 64 1 32 -4 51 -17 66
-24 26 -56 28 -56 2z m-72 -133 c-2 -15 -11 -24 -25 -26 -19 -3 -23 1 -23 22
0 21 5 26 26 26 21 0 25 -4 22 -22z"/>
<path d="M1613 2783 c-10 -3 -13 -45 -13 -160 l0 -154 23 3 c20 3 22 9 25 81
2 57 7 79 17 84 20 7 19 43 0 43 -10 0 -15 10 -15 30 0 28 2 30 40 30 33 0 40
4 40 19 0 26 -75 42 -117 24z"/>
<path d="M1860 2624 l0 -155 23 3 c18 2 23 11 27 48 l6 45 14 -27 c14 -30 29
-35 47 -17 9 9 7 21 -7 48 -18 35 -18 37 1 60 48 59 -3 151 -83 151 l-28 0 0
-156z m80 61 c0 -12 -7 -28 -15 -35 -13 -11 -15 -7 -15 28 0 33 3 40 15 36 8
-4 15 -16 15 -29z"/>
<path d="M1997 2773 c-4 -3 -7 -15 -7 -25 0 -13 8 -18 30 -18 l30 0 0 -130 c0
-121 1 -130 19 -130 27 0 31 18 31 151 l0 119 25 0 c18 0 25 5 25 20 0 18 -7
20 -73 20 -41 0 -77 -3 -80 -7z"/>
<path d="M2327 2764 c-4 -4 -7 -79 -7 -166 l0 -158 25 0 c14 0 25 4 25 9 0 6
15 11 33 13 27 2 33 8 35 31 3 23 8 27 33 27 26 0 30 3 27 23 -2 16 -12 24
-38 28 -31 6 -33 7 -12 14 26 9 32 55 7 55 -8 0 -15 7 -15 15 0 9 9 15 25 15
20 0 25 5 25 25 0 22 -4 25 -32 25 -79 0 -80 -2 -76 -111 1 -55 0 -99 -4 -99
-4 0 -9 57 -10 127 -3 106 -6 128 -18 131 -9 1 -19 0 -23 -4z"/>
<path d="M2166 2713 c-15 -76 -27 -186 -22 -199 8 -21 34 -17 41 6 10 30 51
27 59 -5 6 -25 21 -31 43 -17 9 5 6 26 -13 82 -13 40 -26 88 -30 106 -4 20
-14 36 -30 43 -36 16 -42 14 -48 -16z m41 -115 c-3 -8 -6 -5 -6 6 -1 11 2 17
5 13 3 -3 4 -12 1 -19z"/>
<path d="M2690 2701 c-5 -21 -11 -74 -13 -117 -2 -65 1 -79 14 -82 10 -2 19 5
22 18 7 29 45 26 59 -5 12 -26 17 -29 41 -19 12 4 10 20 -14 95 -16 49 -29 96
-29 104 0 12 -47 45 -64 45 -3 0 -10 -17 -16 -39z m50 -97 c0 -8 -5 -12 -10
-9 -6 4 -8 11 -5 16 9 14 15 11 15 -7z"/>
<path d="M2532 2688 c2 -15 11 -24 26 -26 12 -2 22 -5 22 -8 0 -2 -12 -26 -27
-53 -33 -59 -28 -68 42 -73 45 -3 50 -1 53 20 3 18 -1 22 -22 22 -32 0 -32 5
-1 55 13 22 25 50 25 63 0 20 -4 22 -61 22 -57 0 -60 -1 -57 -22z"/>
<path d="M1715 2649 c-17 -28 -29 -53 -29 -56 3 -10 68 -83 74 -83 3 0 23 22
44 50 l38 50 -39 44 c-21 25 -43 45 -48 46 -6 0 -24 -23 -40 -51z m55 -49 c0
-11 -4 -20 -9 -20 -11 0 -22 26 -14 34 12 12 23 5 23 -14z"/>
<path d="M1303 2473 c20 -2 54 -2 75 0 20 2 3 4 -38 4 -41 0 -58 -2 -37 -4z"/>
<path d="M1338 2443 c12 -2 32 -2 45 0 12 2 2 4 -23 4 -25 0 -35 -2 -22 -4z"/>
<path d="M1268 2433 c6 -2 18 -2 25 0 6 3 1 5 -13 5 -14 0 -19 -2 -12 -5z"/>
<path d="M1173 2413 c9 -2 25 -2 35 0 9 3 1 5 -18 5 -19 0 -27 -2 -17 -5z"/>
<path d="M2587 2383 c-4 -3 -7 -73 -7 -155 0 -169 2 -172 76 -115 52 39 90
103 81 138 -18 72 -121 162 -150 132z m93 -123 c10 -25 9 -34 -7 -62 -31 -53
-48 -43 -51 31 -4 83 2 100 27 77 11 -10 25 -30 31 -46z"/>
<path d="M2184 2367 c-2 -7 -3 -67 -2 -133 l3 -119 25 0 c23 0 25 4 28 54 3
51 4 53 18 33 12 -18 18 -20 34 -10 10 7 17 15 14 19 -7 12 7 39 17 33 5 -3 9
-36 9 -75 0 -67 1 -69 25 -69 l25 0 0 129 c0 125 -1 129 -22 135 -16 4 -27 0
-38 -14 -8 -12 -23 -31 -32 -43 l-17 -22 -21 48 c-15 33 -27 47 -41 47 -11 0
-22 -6 -25 -13z"/>
<path d="M1027 2241 c-4 -74 -5 -136 -2 -139 13 -13 15 15 13 139 l-3 134 -8
-134z"/>
<path d="M1265 2358 c-2 -7 -6 -37 -10 -65 l-6 -53 51 0 50 0 0 -55 c0 -52 1
-55 25 -55 22 0 25 4 25 38 0 20 3 74 7 120 l6 82 -27 0 c-23 0 -26 -4 -26
-32 0 -42 -13 -61 -36 -56 -15 3 -18 11 -16 37 2 20 -2 37 -10 42 -18 12 -28
11 -33 -3z"/>
<path d="M2130 2235 c0 -128 1 -135 20 -135 19 0 20 7 20 135 0 128 -1 135
-20 135 -19 0 -20 -7 -20 -135z"/>
<path d="M1657 2303 c-24 -32 -47 -63 -51 -70 -6 -11 41 -61 108 -114 25 -20
29 -20 43 -6 13 13 14 19 4 31 -11 13 -8 22 18 51 17 20 31 40 31 46 0 5 -16
23 -35 40 -19 17 -35 37 -35 45 0 7 -9 18 -19 24 -17 9 -26 2 -64 -47z m73
-48 c26 -31 -18 -71 -47 -43 -12 12 -13 20 -4 37 14 25 34 27 51 6z"/>
<path d="M2425 2337 c-6 -16 -25 -175 -25 -204 0 -29 35 -32 43 -3 7 29 45 26
59 -5 12 -27 36 -33 44 -11 3 8 -9 61 -28 117 -30 93 -36 104 -61 110 -19 5
-30 4 -32 -4z"/>
<path d="M2932 2340 c-25 -11 -41 -45 -34 -73 3 -10 18 -28 33 -40 36 -26 37
-45 4 -53 -18 -4 -25 -13 -25 -31 0 -22 3 -24 28 -18 51 12 72 33 72 70 0 27
-7 39 -30 57 -32 23 -40 48 -15 48 9 0 15 9 15 25 0 26 -10 30 -48 15z"/>
<path d="M2761 2263 c-19 -132 -19 -148 5 -151 15 -2 23 3 27 17 8 30 45 27
57 -4 10 -25 34 -33 45 -15 5 9 -46 197 -60 220 -3 6 -19 10 -34 10 -28 0 -29
-2 -40 -77z m59 -53 c0 -5 -4 -10 -10 -10 -5 0 -10 5 -10 10 0 6 5 10 10 10 6
0 10 -4 10 -10z"/>
<path d="M2002 2322 c-9 -6 -12 -33 -10 -98 l3 -89 58 -3 c56 -3 58 -2 55 20
-2 18 -10 24 -35 26 -36 4 -46 22 -13 22 14 0 20 7 20 21 0 12 -8 23 -20 26
-29 8 -24 31 8 35 19 2 27 9 27 23 0 16 -8 20 -40 23 -22 1 -46 -2 -53 -6z"/>
<path d="M1930 2263 c0 -58 -11 -83 -37 -83 -9 0 -13 18 -13 61 0 57 -1 60
-22 57 -22 -3 -23 -8 -26 -92 -2 -49 1 -93 5 -97 5 -5 25 0 46 11 20 11 43 17
52 14 33 -13 44 14 42 99 -2 76 -4 82 -25 85 -21 3 -22 0 -22 -55z"/>
<path d="M1111 2284 c-58 -48 -33 -124 40 -124 40 0 52 7 68 38 24 45 -12 112
-60 112 -10 0 -31 -12 -48 -26z m64 -34 c9 -15 -4 -50 -20 -50 -19 0 -27 17
-20 40 7 21 30 27 40 10z"/>
<path d="M1457 2248 c-8 -38 -11 -277 -3 -285 6 -6 18 234 14 282 l-3 40 -8
-37z"/>
<path d="M1353 2083 c15 -2 39 -2 55 0 15 2 2 4 -28 4 -30 0 -43 -2 -27 -4z"/>
<path d="M1243 2073 c15 -2 37 -2 50 0 12 2 0 4 -28 4 -27 0 -38 -2 -22 -4z"/>
<path d="M1123 2063 c9 -2 25 -2 35 0 9 3 1 5 -18 5 -19 0 -27 -2 -17 -5z"/>
<path d="M1313 2043 c15 -2 39 -2 55 0 15 2 2 4 -28 4 -30 0 -43 -2 -27 -4z"/>
<path d="M1233 2033 c9 -2 23 -2 30 0 6 3 -1 5 -18 5 -16 0 -22 -2 -12 -5z"/>
<path d="M1444 1865 c0 -49 1 -71 3 -48 2 23 2 64 0 90 -2 26 -3 8 -3 -42z"/>
<path d="M2042 1860 c-24 -11 -61 -24 -82 -30 -58 -16 -135 -99 -156 -169 -21
-71 -31 -218 -15 -234 8 -8 11 -7 11 6 0 16 2 16 31 1 27 -14 35 -14 56 -3 34
18 47 54 33 92 -18 53 -6 63 32 27 24 -22 58 -26 76 -8 6 6 44 13 84 14 40 2
93 5 117 8 48 4 124 -23 139 -50 5 -9 13 -15 18 -15 5 0 8 -16 6 -37 -2 -20
-4 -64 -4 -96 0 -37 -3 -54 -9 -45 -12 19 -178 14 -198 -6 -12 -11 -10 -17 12
-39 14 -13 23 -27 21 -29 -3 -2 11 -12 30 -21 38 -18 82 -21 91 -6 3 6 15 10
25 10 11 0 26 12 34 28 8 15 15 21 16 13 0 -21 13 -4 16 22 4 38 23 116 39
163 8 25 15 58 15 75 0 16 7 44 16 62 22 41 20 76 -4 124 -26 50 -47 68 -105
87 -27 9 -62 23 -78 31 -16 9 -50 17 -76 20 -27 2 -64 9 -83 15 -47 14 -58 13
-108 -10z m273 -560 c3 -6 -1 -7 -9 -4 -18 7 -21 14 -7 14 6 0 13 -4 16 -10z"/>
<path d="M2570 1711 c-12 -24 -13 -98 -1 -105 15 -10 45 82 35 108 -8 21 -21
20 -34 -3z"/>
<path d="M3061 1644 c-11 -14 -21 -29 -23 -35 -2 -6 -15 -6 -36 0 -27 8 -35 6
-52 -12 -20 -20 -22 -26 -24 -57 -1 -10 -18 -18 -49 -24 -52 -10 -69 -36 -47
-75 10 -20 17 -21 248 -21 l238 0 27 28 c29 30 36 77 17 113 -15 27 -60 47
-95 42 -25 -3 -33 1 -46 25 -27 48 -125 59 -158 16z m109 -16 c25 -18 36 -35
46 -73 8 -32 9 -56 3 -67 -12 -23 -50 -48 -72 -48 -27 0 -11 17 22 25 23 5 30
13 35 39 8 44 -6 79 -42 105 -38 27 -47 26 -66 -1 -36 -51 -4 -117 50 -104 24
6 26 5 15 -8 -19 -23 -40 -20 -67 10 -32 34 -33 95 -2 124 28 25 37 25 78 -2z
m-176 -37 c3 -5 -6 -12 -20 -15 -17 -5 -24 -12 -20 -21 3 -8 1 -15 -4 -15 -15
0 -12 21 7 42 18 20 29 23 37 9z m185 -50 c-1 -20 -2 -22 -6 -6 -8 31 -24 46
-44 40 -21 -7 -27 11 -6 18 23 8 57 -24 56 -52z m-139 24 c6 -8 10 -20 7 -27
-4 -8 -6 -7 -6 4 -1 9 -9 22 -18 27 -10 6 -13 11 -7 11 6 0 17 -7 24 -15z
m288 -14 c22 -20 29 -64 13 -89 -4 -7 -28 -14 -52 -15 -42 -2 -44 -1 -44 27 0
18 6 31 15 33 12 4 13 3 1 -5 -17 -12 -7 -42 13 -42 8 0 26 4 40 10 55 21 14
88 -46 75 -29 -7 -31 -6 -19 9 18 21 51 20 79 -3z m-316 -26 c-2 -14 -6 -25
-8 -25 -2 0 -4 11 -4 25 0 14 4 25 9 25 4 0 6 -11 3 -25z m-41 -25 c10 -6 19
-21 19 -33 -1 -20 -2 -20 -11 -4 -13 22 -25 22 -32 -2 -3 -13 -17 -20 -48 -24
-50 -7 -59 -3 -59 22 0 40 84 66 131 41z m58 -33 c12 -15 12 -17 -3 -11 -9 3
-16 13 -16 22 0 8 1 13 3 11 1 -2 9 -12 16 -22z"/>
<path d="M2872 1484 c-18 -20 -6 -34 28 -34 33 0 49 16 23 23 -13 3 -12 5 5 6
13 0 21 5 18 9 -9 14 -60 11 -74 -4z"/>
<path d="M835 1650 c3 -8 53 -62 112 -120 58 -58 92 -87 75 -65 -39 51 -195
205 -187 185z"/>
<path d="M1280 1586 c0 -2 33 -120 74 -262 41 -143 79 -278 85 -301 10 -35 16
-43 34 -43 27 0 225 74 240 89 9 9 6 23 -11 54 -12 23 -22 51 -22 63 0 20 -54
86 -172 209 -31 33 -59 57 -62 54 -5 -4 60 -370 67 -374 1 -1 31 8 67 20 62
21 64 23 35 29 -71 17 -84 36 -101 147 -7 49 -8 49 56 -31 24 -30 60 -72 79
-93 35 -38 36 -39 16 -53 -38 -29 -125 -65 -147 -62 -13 2 -24 13 -29 28 -4
14 -17 59 -29 100 -53 182 -122 380 -141 404 -18 22 -39 34 -39 22z"/>
<path d="M2562 1517 c-19 -23 -62 -121 -62 -142 0 -16 2 -17 10 -5 19 30 23
-3 11 -102 -9 -84 -15 -106 -31 -117 -29 -20 -25 -48 10 -66 49 -25 57 -20 64
38 8 77 20 407 14 407 -3 0 -10 -6 -16 -13z"/>
<path d="M910 1485 c0 -8 210 -273 281 -354 22 -24 39 -39 39 -34 0 22 -83
133 -194 261 -107 121 -126 141 -126 127z"/>
<path d="M1770 1393 c0 -7 -6 -13 -14 -13 -26 0 -35 -24 -29 -88 4 -40 10 -62
18 -62 9 0 12 -11 8 -39 -3 -23 -1 -41 6 -45 6 -4 12 -26 13 -49 1 -23 5 5 9
63 4 58 11 123 14 145 5 28 2 49 -9 70 -9 17 -16 24 -16 18z"/>
<path d="M1910 1382 c-29 -14 -36 -23 -38 -53 -3 -35 -3 -36 57 -54 37 -11 74
-16 96 -12 36 6 37 5 30 -21 -4 -15 -13 -31 -21 -35 -8 -4 -26 -19 -42 -32
-22 -20 -24 -24 -9 -25 10 0 16 -4 13 -9 -3 -5 -20 -7 -38 -5 -18 1 -36 3 -40
3 -5 1 -8 7 -8 15 0 8 -14 16 -37 19 -48 5 -53 2 -53 -32 0 -15 -5 -32 -10
-37 -6 -6 -15 -55 -20 -110 -5 -54 -11 -108 -14 -119 -2 -11 -5 -24 -6 -30 -1
-16 -18 18 -21 45 -2 14 3 35 9 48 11 18 10 23 -2 28 -30 11 -70 -1 -82 -25
-7 -13 -18 -28 -26 -32 -9 -6 -6 -9 12 -9 53 -1 73 -42 35 -72 -28 -22 -33
-48 -9 -48 8 0 13 -4 10 -9 -8 -12 12 -26 57 -40 43 -14 60 -40 51 -76 -7 -28
-11 -30 -51 -14 -15 7 -44 11 -64 10 -23 -1 -45 6 -61 19 -31 24 -48 26 -48 5
0 -21 -28 -19 -33 3 -3 12 -5 11 -6 -6 -1 -13 10 -33 25 -47 23 -21 24 -26 10
-31 -9 -3 -16 -10 -16 -15 0 -15 27 -10 41 7 23 28 70 41 111 30 33 -9 62 -36
38 -36 -6 0 -10 -5 -10 -11 0 -5 5 -7 10 -4 6 4 10 -5 10 -19 0 -14 5 -26 11
-26 5 0 8 -4 5 -8 -3 -5 4 -8 16 -8 20 1 21 -4 19 -69 -3 -76 -12 -95 -35 -76
-12 10 -15 4 -18 -39 -1 -27 0 -50 5 -50 4 0 7 12 7 27 0 27 0 27 15 6 10 -15
14 -41 12 -89 -3 -59 0 -74 20 -104 13 -19 26 -52 29 -72 6 -35 9 -38 40 -38
36 0 41 9 23 41 -9 19 -9 19 10 10 28 -15 31 -14 31 13 0 19 -4 22 -25 18 -17
-3 -25 0 -25 10 0 10 8 13 28 10 27 -4 52 -38 52 -73 0 -19 44 -29 131 -29
l57 0 7 80 c8 88 0 193 -17 228 -9 17 -9 25 0 34 17 17 15 58 -2 58 -14 0 -31
27 -27 43 1 5 -2 7 -6 5 -67 -32 -62 -19 -65 -154 -3 -115 -2 -123 16 -126 11
-2 21 -8 23 -13 5 -18 -49 -30 -114 -27 l-63 3 0 159 c0 150 -1 160 -19 160
-17 0 -31 18 -31 41 0 5 24 9 53 10 39 0 47 2 31 9 -12 4 -24 16 -28 26 -6 14
-2 16 30 11 42 -7 76 8 114 47 23 25 92 52 156 60 16 3 37 7 47 11 14 6 17 2
17 -24 0 -32 16 -42 26 -17 9 24 31 26 53 5 17 -16 21 -17 21 -4 0 8 8 15 18
15 14 0 14 2 3 9 -8 5 -11 16 -8 25 4 10 1 16 -8 16 -8 0 -14 -3 -14 -7 6 -35
-25 -47 -34 -14 -3 13 1 21 13 24 18 5 33 54 19 63 -5 3 -9 0 -9 -5 0 -6 -7
-11 -15 -11 -8 0 -15 6 -15 13 0 8 -3 7 -10 -3 -5 -8 -11 -12 -13 -10 -17 20
-57 100 -57 116 0 12 -11 0 -29 -31 -35 -62 -78 -105 -102 -105 -26 0 -24 22
6 50 31 29 75 106 75 131 0 24 19 34 26 14 6 -14 8 -14 18 2 7 10 20 39 30 66
l18 47 -31 67 c-17 36 -34 63 -37 60 -3 -3 -1 -14 4 -24 5 -10 12 -37 15 -61
4 -33 2 -42 -8 -39 -7 3 -33 9 -59 12 -53 8 -58 19 -16 34 17 5 30 17 30 25 0
18 -17 20 -39 7 -10 -7 -23 -3 -39 10 -14 10 -33 19 -42 19 -10 0 -23 7 -30
15 -11 13 -9 20 9 39 12 13 21 27 20 32 -4 22 2 34 17 34 10 0 14 6 11 14 -3
8 2 16 12 19 12 3 17 13 16 28 -1 18 -10 26 -42 35 -22 7 -54 19 -71 28 -39
20 -68 20 -112 -2z m110 -41 c0 -5 -9 -7 -20 -4 -11 3 -20 7 -20 9 0 2 9 4 20
4 11 0 20 -4 20 -9z m-107 -337 c4 -21 12 -69 17 -106 5 -37 13 -76 19 -87 16
-28 14 -36 -6 -20 -29 24 -51 92 -59 178 -6 69 -4 83 7 79 8 -3 18 -22 22 -44z
m193 10 c97 -7 109 -10 96 -27 -5 -6 -12 -41 -15 -76 -6 -72 -28 -100 -38 -50
-8 38 -9 38 -48 43 -25 3 -36 -2 -48 -21 -20 -31 -33 -15 -33 44 0 50 9 58 46
38 32 -16 84 -20 84 -6 0 5 -31 14 -69 21 -39 6 -72 17 -75 25 -5 15 3 27 14
20 4 -3 43 -7 86 -11z m-29 -206 c-3 -8 -6 -5 -6 6 -1 11 2 17 5 13 3 -3 4
-12 1 -19z m-207 -228 c5 0 10 -7 10 -15 0 -14 -3 -13 -24 2 -26 19 -39 50
-29 66 3 5 12 -5 19 -22 7 -17 18 -31 24 -31z m37 -237 c-3 -10 -5 -4 -5 12 0
17 2 24 5 18 2 -7 2 -21 0 -30z"/>
<path d="M2435 1250 c-18 -19 -17 -20 3 -20 15 0 22 6 22 20 0 11 -2 20 -3 20
-2 0 -12 -9 -22 -20z"/>
<path d="M3060 1104 c-271 -69 -384 -106 -388 -128 -4 -18 137 -246 152 -246
17 0 -4 62 -45 131 -25 41 -38 74 -33 79 5 4 54 22 109 40 55 17 111 36 124
41 35 14 37 4 8 -33 -15 -18 -46 -59 -69 -90 -42 -56 -68 -73 -68 -44 0 17
-39 66 -40 49 -1 -36 51 -133 71 -133 4 0 36 35 70 78 35 42 92 113 129 157
90 109 92 113 83 118 -4 3 -51 -6 -103 -19z"/>
<path d="M839 971 c46 -64 264 -282 280 -279 28 6 17 25 -66 116 -46 50 -83
95 -83 100 0 13 152 -16 262 -50 39 -12 39 -16 5 -63 -14 -19 -16 -19 -56 8
-22 15 -41 24 -41 19 0 -14 50 -82 61 -82 29 0 72 35 90 73 26 59 24 74 -13
86 -101 32 -402 101 -442 101 -16 0 -16 -2 3 -29z"/>
<path d="M2380 950 c-29 -34 -38 -51 -28 -54 7 -3 32 -10 54 -16 38 -9 45 -16
77 -78 35 -67 36 -67 149 -128 79 -42 114 -56 116 -47 5 18 -70 156 -119 219
-21 28 -58 64 -81 81 -41 29 -114 73 -122 73 -2 0 -23 -22 -46 -50z"/>
<path d="M3393 940 c-32 -13 -29 -21 5 -10 56 18 58 18 37 19 -11 0 -30 -4
-42 -9z"/>
<path d="M2298 929 c-19 -11 -43 -49 -31 -48 4 0 18 13 31 30 26 32 26 33 0
18z"/>
<path d="M3338 913 c7 -3 16 -2 19 1 4 3 -2 6 -13 5 -11 0 -14 -3 -6 -6z"/>
<path d="M3203 811 c-72 -32 -144 -69 -160 -81 -35 -29 -31 -27 155 56 83 38
152 72 152 76 0 13 -8 10 -147 -51z"/>
<path d="M1510 746 c0 -7 7 -19 15 -26 13 -11 15 -8 15 14 0 16 -5 26 -15 26
-8 0 -15 -6 -15 -14z"/>
<path d="M1440 640 c0 -5 7 -10 16 -10 8 0 12 5 9 10 -3 6 -10 10 -16 10 -5 0
-9 -4 -9 -10z"/>
<path d="M1502 613 c-19 -4 -21 -7 -11 -19 9 -11 9 -17 -1 -29 -10 -12 -9 -16
4 -21 11 -4 15 -13 10 -28 -11 -40 -29 -76 -37 -76 -4 0 -7 -6 -6 -12 3 -21
-12 -48 -27 -48 -7 0 -20 -15 -29 -34 -15 -32 -20 -35 -56 -33 -25 1 -41 7
-44 17 -7 20 -52 71 -62 69 -22 -4 -33 3 -33 19 -1 16 -2 16 -13 1 -11 -15
-15 -15 -31 -3 -15 11 -17 16 -7 28 7 9 8 17 2 20 -5 3 -12 0 -15 -6 -3 -7 -5
2 -3 20 2 17 1 32 -3 32 -4 0 -12 11 -18 25 -8 17 -16 23 -28 18 -13 -5 -16
-3 -11 10 3 9 2 17 -3 17 -6 0 -10 -7 -10 -15 0 -8 -4 -15 -10 -15 -5 0 -10
-7 -10 -14 0 -18 49 -72 61 -68 17 4 9 -17 -13 -39 -16 -15 -19 -23 -10 -26 6
-3 12 -17 12 -32 0 -15 5 -32 12 -39 8 -8 8 -15 -1 -26 -15 -18 -6 -52 14 -60
29 -11 15 -26 -17 -19 -46 8 -76 38 -90 91 -17 57 -31 62 -52 18 -29 -62 -2
-141 47 -135 12 2 32 -3 44 -9 19 -11 22 -20 20 -58 -3 -50 4 -62 23 -39 7 8
21 15 31 15 11 0 19 5 19 10 0 6 5 10 10 10 6 0 10 -7 10 -15 0 -12 5 -13 28
-3 15 7 38 21 52 33 14 12 43 32 65 45 l39 24 -42 18 c-51 23 -54 41 -9 55 26
8 38 7 52 -3 10 -7 21 -11 26 -9 4 3 19 1 34 -5 23 -9 24 -12 14 -31 -10 -19
-7 -26 20 -51 17 -16 31 -25 31 -19 0 5 -4 13 -10 16 -5 3 -10 11 -10 16 0 6
5 7 10 4 6 -3 10 -2 10 4 0 5 -4 12 -9 15 -13 8 -12 104 1 112 7 4 5 9 -3 15
-11 7 -9 9 6 9 15 0 16 3 7 12 -17 17 -15 23 12 53 14 15 22 33 19 44 -3 12 2
20 16 24 13 3 21 0 21 -8 0 -7 6 -18 14 -24 11 -10 16 -8 21 8 5 16 12 20 31
15 23 -6 34 9 15 20 -5 3 -7 15 -4 26 4 16 0 20 -21 20 -18 0 -24 -4 -20 -14
8 -20 -12 -29 -35 -16 -29 15 -37 49 -15 64 15 12 13 38 -4 35 -4 -1 -17 -4
-30 -6z m-388 -125 c-3 -5 -7 -8 -8 -6 0 2 -10 14 -21 27 l-20 24 27 -18 c15
-9 25 -21 22 -27z m106 -278 c-12 -16 -26 -30 -33 -30 -6 0 2 14 18 30 16 17
30 30 33 30 2 0 -6 -13 -18 -30z"/>
<path d="M1030 580 c-8 -5 -10 -10 -5 -10 6 0 17 5 25 10 8 5 11 10 5 10 -5 0
-17 -5 -25 -10z"/>
<path d="M2520 580 c-8 -5 -36 -10 -62 -10 -35 0 -48 -4 -48 -15 0 -11 10 -13
51 -8 42 5 53 3 61 -10 8 -16 11 -16 33 -1 32 21 33 54 3 54 -13 0 -30 -5 -38
-10z"/>
<path d="M2600 582 c0 -18 19 -24 37 -13 10 6 13 11 6 11 -6 0 -18 3 -27 6 -9
3 -16 1 -16 -4z"/>
<path d="M2904 576 c-8 -22 2 -118 18 -171 l12 -40 8 75 c11 103 10 102 60 96
112 -15 261 -38 333 -51 77 -14 163 -20 154 -11 -9 9 -215 65 -310 85 -53 11
-135 23 -182 27 -76 6 -87 5 -93 -10z"/>
<path d="M1264 568 c-4 -5 -2 -14 3 -19 12 -12 55 1 50 15 -5 14 -45 17 -53 4z"/>
<path d="M1335 530 c-3 -5 -20 -14 -38 -19 -32 -9 -32 -9 -4 -10 15 -1 30 -1
34 -2 4 0 10 9 15 20 8 22 4 28 -7 11z"/>
<path d="M2265 529 c-11 -17 1 -21 15 -4 8 9 8 15 2 15 -6 0 -14 -5 -17 -11z"/>
<path d="M2337 523 c3 -7 8 -11 12 -9 4 3 13 1 20 -4 16 -9 6 -30 -14 -30 -9
0 -12 -6 -9 -15 4 -8 12 -15 19 -15 20 0 30 -21 15 -30 -8 -5 -10 -15 -5 -26
14 -35 10 -59 -14 -78 -13 -11 -30 -35 -38 -53 -7 -19 -20 -36 -28 -39 -8 -4
-13 -10 -10 -14 3 -5 1 -11 -5 -15 -6 -4 -8 -12 -4 -18 3 -7 -1 -4 -10 6 -8
11 -12 25 -10 32 3 7 1 16 -5 20 -8 4 -11 -31 -11 -114 l0 -121 60 0 c58 0 60
1 50 20 -8 15 -7 27 4 47 30 58 84 84 58 29 -9 -20 -7 -29 9 -49 10 -14 19
-30 19 -36 0 -6 19 -11 44 -11 38 0 47 5 69 33 l25 33 -69 69 c-48 48 -68 76
-65 88 3 12 -4 21 -21 28 -23 8 -24 13 -18 47 3 20 11 42 17 47 7 7 9 6 5 -1
-3 -6 11 -20 31 -32 49 -28 103 -89 65 -75 -15 6 -16 5 -3 -9 8 -9 19 -13 24
-10 5 3 6 0 2 -6 -3 -6 16 -34 44 -62 l51 -52 -36 -49 -35 -49 250 0 c138 0
250 2 250 4 0 2 16 55 36 118 71 223 67 197 39 208 -16 6 -25 17 -25 30 0 17
-4 20 -22 15 -13 -4 -30 -15 -38 -26 -8 -10 -37 -24 -63 -31 -39 -10 -47 -16
-45 -33 3 -17 9 -19 41 -17 44 4 45 -1 14 -78 -21 -51 -21 -58 -8 -98 7 -23
12 -44 10 -47 -2 -2 -18 -5 -34 -7 -29 -3 -31 0 -51 61 -12 39 -29 70 -42 79
-28 19 -28 50 0 61 l22 8 -22 5 c-29 8 -68 -11 -83 -39 -7 -13 -18 -23 -26
-23 -7 0 -13 -5 -13 -11 0 -20 21 -104 31 -122 13 -25 6 -33 -31 -32 -30 0
-33 3 -52 65 -11 36 -28 92 -39 126 -10 33 -19 68 -19 77 0 11 -5 14 -16 10
-9 -3 -20 0 -24 8 -7 10 -14 11 -32 1 -19 -9 -51 -10 -100 -3 -16 2 -7 31 10
31 22 0 24 50 2 67 -13 10 -12 15 8 42 26 35 29 53 7 45 -8 -4 -15 -12 -15
-19 0 -7 -7 -18 -15 -25 -13 -11 -19 -9 -37 9 -11 13 -20 34 -20 47 0 15 -7
25 -17 26 -55 5 -68 3 -64 -9z m134 -121 c12 -30 2 -43 -28 -36 -26 7 -34 44
-13 61 18 14 29 8 41 -25z"/>
<path d="M3006 473 c-11 -38 -18 -93 -12 -93 4 0 17 12 29 26 l23 26 79 -17
c73 -16 120 -35 85 -35 -9 0 -8 -4 5 -14 16 -11 17 -18 8 -42 -6 -16 -19 -55
-29 -87 l-17 -58 29 -30 c16 -17 53 -46 82 -65 39 -26 52 -41 52 -60 0 -23 3
-24 61 -24 l62 0 -6 46 c-6 53 -25 77 -114 141 -65 46 -74 62 -48 83 20 17 19
31 -2 23 -10 -4 -14 -2 -9 5 10 17 48 10 54 -11 5 -19 30 -16 65 8 17 12 16
13 -6 19 -25 6 -44 47 -32 66 4 6 -8 10 -24 10 -32 0 -44 19 -13 21 9 1 1 5
-18 9 -19 4 -80 19 -135 33 -161 41 -163 41 -169 20z"/>
<path d="M1636 463 c-8 -8 13 -33 29 -33 7 0 15 -7 19 -15 3 -8 1 -15 -4 -15
-6 0 -10 -4 -10 -9 0 -6 13 -6 31 1 29 10 30 12 13 21 -11 6 -23 16 -27 23
-10 18 -43 35 -51 27z"/>
<path d="M2240 393 l1 -58 14 40 c8 22 15 41 15 43 0 2 4 1 9 -2 5 -3 11 3 14
14 4 17 0 20 -24 20 -29 0 -29 -1 -29 -57z"/>
<path d="M1980 413 c0 -24 11 -37 33 -41 22 -4 21 7 -2 36 -23 27 -31 28 -31
5z"/>
<path d="M765 373 c-66 -13 -124 -28 -129 -33 -11 -11 -8 -12 120 -49 69 -20
103 -26 112 -19 18 15 15 38 -5 38 -14 0 -12 5 9 23 28 23 41 58 23 62 -5 2
-64 -8 -130 -22z"/>
<path d="M2650 360 c0 -19 4 -21 25 -16 20 5 27 2 35 -16 8 -21 9 -20 9 10 1
19 -4 32 -11 32 -7 0 -23 3 -35 6 -19 5 -23 2 -23 -16z"/>
<path d="M1561 324 c-23 -20 -48 -49 -56 -65 -17 -32 -20 -109 -5 -109 5 0 13
-18 16 -40 5 -30 10 -38 19 -30 8 6 19 4 34 -8 42 -31 62 -53 57 -61 -3 -5 33
-9 80 -10 85 -2 85 -1 79 21 -10 32 -52 85 -77 99 -55 30 -113 88 -100 101 6
6 8 16 6 22 -3 7 6 18 20 24 22 10 26 8 32 -11 13 -44 24 -48 50 -18 30 36 30
41 -1 41 -18 0 -25 5 -25 20 0 11 -6 20 -12 20 -9 0 -8 3 2 10 19 12 13 16
-36 23 -37 6 -45 3 -83 -29z m94 -24 c-3 -5 -11 -10 -16 -10 -6 0 -7 5 -4 10
3 6 11 10 16 10 6 0 7 -4 4 -10z"/>
<path d="M2816 351 c-3 -5 1 -14 9 -21 12 -10 15 -10 15 3 0 19 -16 31 -24 18z"/>
<path d="M2850 324 c0 -8 5 -12 10 -9 6 4 8 11 5 16 -9 14 -15 11 -15 -7z"/>
<path d="M2800 301 c0 -16 34 -44 43 -35 10 11 -6 42 -24 47 -13 4 -19 0 -19
-12z"/>
<path d="M551 250 c16 -10 199 -63 257 -75 24 -5 33 -3 38 10 4 9 4 18 1 22
-7 6 -177 38 -257 47 -37 4 -50 3 -39 -4z"/>
<path d="M2786 241 c-4 -7 -5 -15 -2 -18 9 -9 19 4 14 18 -4 11 -6 11 -12 0z"/>
<path d="M928 160 c-11 -55 -14 -120 -6 -120 5 0 8 -6 8 -14 0 -18 22 -26 70
-26 40 0 48 9 46 50 -1 18 -6 24 -19 22 -9 -2 -17 2 -17 9 0 7 -13 10 -35 7
l-34 -4 -3 56 c-3 51 -4 52 -10 20z"/>
<path d="M1352 90 c-12 -10 -28 -20 -35 -23 -6 -2 -8 -8 -4 -13 4 -4 22 6 40
24 35 35 35 42 -1 12z"/>
<path d="M1155 60 c-2 -4 -9 -19 -14 -34 l-11 -26 62 0 c59 0 61 1 40 16 -12
8 -22 21 -22 28 0 15 -47 28 -55 16z"/>
</g>
</svg>
